<svg xmlns="http://www.w3.org/2000/svg" viewBox="0 0 328.2 189.5"><circle opacity=".5" fill="#54EBCE" cx="94.8" cy="94.8" r="94.8"/><circle opacity=".5" fill="#54EBCE" cx="94.8" cy="96.6" r="83.2"/><circle opacity=".5" fill="#50D1CC" cx="94.8" cy="98.1" r="69.6"/><g><path fill="none" stroke="#FFF" stroke-width="1.516" stroke-miterlimit="10" d="M118.7 149.9H68.9c-6.6 0-12-5.4-12-12v-44c0-6.6 5.4-12 12-12h49.7c6.6 0 12 5.4 12 12v44c.1 6.6-5.3 12-11.9 12z"/><path fill="#FFF" d="M57.5 75.2c10.8-10 21.7-20 32.5-30 1.5-1.4 4.1-3 5.2-4.8.2-.2-1.1-.7-.7.1.3.8 1.6 1.6 2.2 2.2 6 5.9 12.1 11.8 18.1 17.7 5 4.9 10.1 9.8 15.1 14.7.9.9 2.2-.5 1.3-1.3L95.4 38.9c-.4-.4-1-.4-1.3 0-12.6 11.6-25.3 23.3-37.9 34.9-.9.8.4 2.2 1.3 1.4zM113.2 130.8c-4.7-6.8-13.6-18.6-14.2-19.5V97c-.2 0-.3.1-.5.1h-9.4c-.2 0-.3 0-.5-.1v14.3c-.6.9-9.4 12.6-14.2 19.5-3.5 5.1 0 8.5 4.1 8.3h30.6c4.1.2 7.6-3.2 4.1-8.3zm-7.1 6.2H81.6c-3.3.1-6.1-2.6-3.3-6.7 1.7-2.5 4-5.7 6.1-8.6h18.7c2.1 2.9 4.5 6.1 6.1 8.6 2.9 4.1.1 6.9-3.1 6.7z"/><path opacity=".5" fill="#54EBCE" d="M103.2 121.8H84.5c-2.1 2.9-4.5 6.1-6.1 8.6-2.8 4.1 0 6.8 3.3 6.7h24.4c3.3.1 6.1-2.6 3.3-6.7-1.7-2.5-4.1-5.7-6.2-8.6z"/><path fill="#FFF" d="M98.5 97.2c.2 0 .3 0 .5-.1 1-.2 1.7-1.1 1.7-2.2 0-1.2-1-2.2-2.2-2.2h-9.4c-1.2 0-2.2 1-2.2 2.2 0 1.1.7 2 1.7 2.2.2 0 .3.1.5.1h9.4z"/><ellipse fill="#FFF" cx="96.8" cy="89.8" rx=".9" ry="1"/><ellipse fill="#FFF" cx="101" cy="89.2" rx=".9" ry="1"/><ellipse fill="#FFF" cx="104.8" cy="91.7" rx=".9" ry="1"/><ellipse fill="#FFF" cx="107.8" cy="95.4" rx=".9" ry="1"/><ellipse fill="#FFF" cx="109.7" cy="99.8" rx=".9" ry="1"/><ellipse fill="#FFF" cx="110.5" cy="104.2" rx=".9" ry="1"/><ellipse fill="#FFF" cx="93.8" cy="128.4" rx=".9" ry="1"/><ellipse fill="#FFF" cx="87.8" cy="131.9" rx=".9" ry="1"/><ellipse fill="#FFF" cx="86.9" cy="125.6" rx=".9" ry="1"/><ellipse fill="#FFF" cx="102.9" cy="125.6" rx=".9" ry="1"/><ellipse fill="#FFF" cx="104.8" cy="131.9" rx=".9" ry="1"/><ellipse fill="#FFF" cx="95.8" cy="133.9" rx=".9" ry="1"/><ellipse fill="#FFF" cx="99.1" cy="129.4" rx=".9" ry="1"/><ellipse fill="#FFF" cx="95.8" cy="124.6" rx=".9" ry="1"/><ellipse fill="#FFF" cx="81.7" cy="132.9" rx=".9" ry="1"/><ellipse fill="#FFF" cx="83.6" cy="129.4" rx=".9" ry="1"/><ellipse fill="#FFF" cx="90.8" cy="125.6" rx=".9" ry="1"/><ellipse fill="#FFF" cx="89.9" cy="134.9" rx=".9" ry="1"/></g><g><path opacity=".5" fill="#50D1CC" d="M213.4 17.6c4.6 0 13.5 1.9 13.5 8v4h-6v-2c0-2.6-4.3-3.8-7.4-3.8-6.4 0-11.4 4.6-11.4 12 0 7 5.1 12.6 11.6 12.6 6.7 0 10.8-4.7 10.8-4.7l3.5 4.7s-5.2 6.1-14.3 6.1c-10.9 0-18.3-8.2-18.3-18.7 0-10.4 7.7-18.2 18-18.2z"/><path opacity=".5" fill="#54EBCE" d="M239.2 36c5 0 7.7 3.6 7.7 8.2 0 .5-.1 1.6-.1 1.6h-12c.3 3.1 2.6 4.7 5.2 4.7 2.8 0 4.9-1.9 4.9-1.9l1.8 3s-2.7 2.6-7 2.6c-5.7 0-9.3-4.1-9.3-9.1 0-5.4 3.6-9.1 8.8-9.1zm3.3 6.8c-.1-2.1-1.5-3.5-3.3-3.5-2.2 0-3.8 1.3-4.2 3.5h7.5zM251.1 40.8c0-.5-.3-.7-.7-.7H249v-3.7h4c1.5 0 2.3.7 2.3 1.9v.5c0 .4-.1.7-.1.7h.1c.7-1.5 2.6-3.6 6.1-3.6 3.8 0 6.1 2 6.1 6.6v6.8c0 .5.3.7.7.7h1.4v3.6h-4.1c-1.6 0-2.3-.7-2.3-2.3v-8c0-2.1-.5-3.5-2.7-3.5-2.3 0-4 1.5-4.7 3.5-.2.7-.3 1.5-.3 2.3v8h-4.3V40.8zM273 39.8h-2.2v-3.4h2.3v-4.7h4.2v4.7h3.9v3.4h-3.9v7c0 2.9 2.2 3.3 3.4 3.3.5 0 .8-.1.8-.1v3.8s-.5.1-1.3.1c-2.4 0-7.2-.7-7.2-6.5v-7.6zM285.5 40.8c0-.5-.3-.7-.7-.7h-1.4v-3.7h3.9c1.5 0 2.3.6 2.3 2.1v1c0 .6-.1 1.1-.1 1.1h.1c.8-2.5 2.9-4.5 5.5-4.5.4 0 .8.1.8.1v4.2s-.4-.1-1.1-.1c-1.8 0-3.9 1.1-4.7 3.6-.2.9-.4 1.8-.4 2.8v6.9h-4.3V40.8zM306 36c5 0 7.7 3.6 7.7 8.2 0 .5-.1 1.6-.1 1.6h-12c.3 3.1 2.6 4.7 5.2 4.7 2.8 0 4.9-1.9 4.9-1.9l1.8 3s-2.7 2.6-7 2.6c-5.7 0-9.3-4.1-9.3-9.1 0-5.4 3.6-9.1 8.8-9.1zm3.2 6.8c-.1-2.1-1.5-3.5-3.3-3.5-2.2 0-3.8 1.3-4.2 3.5h7.5z"/><g><path opacity=".5" fill="#50D1CC" d="M199.2 98.7s3.6 4.2 8.6 4.2c2.7 0 5.1-1.5 5.1-4.2 0-6.1-16.7-5.6-16.7-16.6 0-5.8 5-10 11.9-10 4.2 0 10.6 2 10.6 7v3.3h-5.9v-1.6c0-1.6-2.3-2.8-4.7-2.8-3 0-5.2 1.6-5.2 3.8 0 6.1 16.7 4.9 16.7 16.5 0 5.6-4.4 10.5-11.8 10.5-7.9 0-12.2-5.5-12.2-5.5l3.6-4.6z"/><path opacity=".5" fill="#54EBCE" d="M232.8 97.3h.5v-.1c0-2.5-1-3.4-3.2-3.4-.8 0-2.3.2-2.3 1.2v.9h-4V94c0-3.2 4.6-3.6 6.4-3.6 5.8 0 7.5 3 7.5 6.9v6.5c0 .5.3.7.7.7h1.4v3.6h-3.9c-1.6 0-2.2-.9-2.2-1.9v-.7h-.1s-1.3 3.1-5.2 3.1c-3.1 0-5.9-1.9-5.9-5.4 0-5.4 7.4-5.9 10.3-5.9zm-3.4 7.9c2.3 0 3.9-2.4 3.9-4.6v-.4h-.7c-2.2 0-5.8.3-5.8 2.7 0 1.3.9 2.3 2.6 2.3zM243.2 95.3c0-.5-.3-.7-.7-.7h-1.4v-3.7h4c1.5 0 2.3.7 2.3 1.9v.5c0 .4-.1.7-.1.7h.1c.7-1.5 2.6-3.6 6.1-3.6 3.8 0 6.1 2 6.1 6.6v6.8c0 .5.3.7.7.7h1.4v3.6h-4.1c-1.6 0-2.3-.7-2.3-2.3v-8c0-2.1-.5-3.5-2.7-3.5-2.3 0-4 1.5-4.7 3.5-.2.7-.3 1.5-.3 2.3v8h-4.3V95.3zM265.1 94.3h-2.2v-3.4h2.3v-4.7h4.2v4.7h3.9v3.4h-3.9v7c0 2.9 2.2 3.3 3.4 3.3.5 0 .8-.1.8-.1v3.8s-.5.1-1.3.1c-2.4 0-7.2-.7-7.2-6.5v-7.6zM284.4 90.5c5 0 7.7 3.6 7.7 8.2 0 .5-.1 1.6-.1 1.6h-12c.3 3.1 2.6 4.7 5.2 4.7 2.8 0 4.9-1.9 4.9-1.9l1.8 3s-2.7 2.6-7 2.6c-5.7 0-9.3-4.1-9.3-9.1 0-5.4 3.6-9.1 8.8-9.1zm3.3 6.8c-.1-2.1-1.5-3.5-3.3-3.5-2.2 0-3.8 1.3-4.2 3.5h7.5zm-2.4-13.2h4.1l-3.6 4.6h-3.2l2.7-4.6z"/></g><g><path opacity=".5" fill="#50D1CC" d="M195.8 160.9h3.5v-24.4h-3.5v-5.6h13.3v5.6h-3.6v24.4h3.6v5.5h-13.3v-5.5z"/><path opacity=".5" fill="#54EBCE" d="M213.8 153.5c0-.5-.3-.7-.7-.7h-1.4v-3.7h4c1.5 0 2.3.7 2.3 1.9v.5c0 .4-.1.7-.1.7h.1c.7-1.5 2.6-3.6 6.1-3.6 3.8 0 6.1 2 6.1 6.6v6.8c0 .5.3.7.7.7h1.4v3.6h-4.1c-1.6 0-2.3-.7-2.3-2.3v-8c0-2.1-.5-3.5-2.7-3.5-2.3 0-4 1.5-4.7 3.5-.2.7-.3 1.5-.3 2.3v8h-4.3v-12.8zM235.7 152.5h-2.2v-3.4h2.3v-4.7h4.2v4.7h3.9v3.4H240v7c0 2.9 2.2 3.3 3.4 3.3.5 0 .8-.1.8-.1v3.8s-.5.1-1.3.1c-2.4 0-7.2-.7-7.2-6.5v-7.6zM255.1 148.7c5 0 7.7 3.6 7.7 8.2 0 .5-.1 1.6-.1 1.6h-12c.3 3.1 2.6 4.7 5.2 4.7 2.8 0 4.9-1.9 4.9-1.9l1.8 3s-2.7 2.6-7 2.6c-5.7 0-9.3-4.1-9.3-9.1-.1-5.4 3.6-9.1 8.8-9.1zm3.2 6.8c-.1-2.1-1.5-3.5-3.3-3.5-2.2 0-3.8 1.3-4.2 3.5h7.5zm-2.4-13.2h4.1l-3.6 4.6h-3.2l2.7-4.6zM272.9 148.7c4 0 5.3 2.4 5.3 2.4h.1v-.4c0-.8.5-1.6 1.9-1.6h4v3.7h-1.3c-.4 0-.7.2-.7.7v11.9c0 5.9-4.6 8.2-9.1 8.2-2.2 0-4.5-.6-6.2-1.5l1.3-3.4s2.1 1.2 4.8 1.2c2.6 0 4.9-1.1 4.9-4.2v-.8-.9h-.1c-1 1.5-2.5 2.2-4.8 2.2-5 0-7.8-4-7.8-8.8 0-4.8 2.7-8.7 7.7-8.7zm5 8.7c0-3.9-2-5-4.3-5-2.6 0-4 1.9-4 4.8 0 3 1.5 5.3 4.3 5.3 2.1 0 4-1.2 4-5.1zM287.7 153.5c0-.5-.3-.7-.7-.7h-1.4v-3.7h3.9c1.5 0 2.3.6 2.3 2.1v1c0 .6-.1 1.1-.1 1.1h.1c.8-2.5 2.9-4.5 5.5-4.5.4 0 .8.1.8.1v4.2s-.4-.1-1.1-.1c-1.8 0-3.9 1.1-4.7 3.6-.2.8-.4 1.8-.4 2.8v6.9h-4.3v-12.8zM308.2 148.7c5 0 7.7 3.6 7.7 8.2 0 .5-.1 1.6-.1 1.6h-12c.3 3.1 2.6 4.7 5.2 4.7 2.8 0 4.9-1.9 4.9-1.9l1.8 3s-2.7 2.6-7 2.6c-5.7 0-9.3-4.1-9.3-9.1 0-5.4 3.6-9.1 8.8-9.1zm3.2 6.8c-.1-2.1-1.5-3.5-3.3-3.5-2.2 0-3.8 1.3-4.2 3.5h7.5zm-2.4-13.2h4.1l-3.6 4.6h-3.2l2.7-4.6z"/></g></g></svg>