<?xml version="1.0" encoding="UTF-8"?>
<svg width="18px" height="26px" viewBox="0 0 18 26" version="1.1" xmlns="http://www.w3.org/2000/svg" xmlns:xlink="http://www.w3.org/1999/xlink">
    <!-- Generator: Sketch 40.3 (33839) - http://www.bohemiancoding.com/sketch -->
    <title>placeholder</title>
    <desc>Created with Sketch.</desc>
    <defs></defs>
    <g id="Accueil" stroke="none" stroke-width="1" fill="none" fill-rule="evenodd">
        <g transform="translate(-834.000000, -295.000000)" id="Cards" fill="#00635F">
            <g transform="translate(776.000000, 191.000000)">
                <g id="placeholder" transform="translate(58.000000, 104.000000)">
                    <g id="Capa_1">
                        <g id="Group">
                            <path d="M9.02630769,5.49818182 C7.24523077,5.49818182 5.79553846,6.93733091 5.79553846,8.70545455 C5.79553846,10.4735782 7.24523077,11.9127273 9.02630769,11.9127273 C10.8073846,11.9127273 12.2570769,10.4735782 12.2570769,8.70545455 C12.2570769,6.93733091 10.8073846,5.49818182 9.02630769,5.49818182 L9.02630769,5.49818182 Z M9.02630769,10.9963636 C7.75384615,10.9963636 6.71861538,9.96866182 6.71861538,8.70545455 C6.71861538,7.44224727 7.75384615,6.41454545 9.02630769,6.41454545 C10.2987692,6.41454545 11.334,7.44224727 11.334,8.70545455 C11.334,9.96866182 10.2987692,10.9963636 9.02630769,10.9963636 L9.02630769,10.9963636 Z" id="Shape"></path>
                            <path d="M15.2030769,2.57360727 C13.5313846,0.914072727 11.3086154,0 8.94461538,0 C6.58015385,0 4.35784615,0.914072727 2.68615385,2.57360727 C-0.407538462,5.64434182 -0.792,11.4220145 1.85353846,14.9225236 L8.94461538,25.0886618 L16.0250769,14.9367273 C18.6812308,11.4220145 18.2967692,5.64434182 15.2030769,2.57360727 L15.2030769,2.57360727 Z M15.2764615,14.4011127 L8.94461538,23.4786109 L2.60261538,14.3869091 C0.203076923,11.2107927 0.546923077,5.99301818 3.33923077,3.22147636 C4.83646154,1.73513455 6.82707692,0.916363636 8.94461538,0.916363636 C11.0621538,0.916363636 13.0527692,1.73513455 14.5504615,3.22147636 C17.3427692,5.99301818 17.6866154,11.2107927 15.2764615,14.4011127 L15.2764615,14.4011127 Z" id="Shape"></path>
                        </g>
                    </g>
                </g>
            </g>
        </g>
    </g>
</svg>