<?xml version="1.0" encoding="utf-8"?>
<!-- Generator: Adobe Illustrator 18.1.1, SVG Export Plug-In . SVG Version: 6.00 Build 0)  -->
<svg version="1.1" xmlns="http://www.w3.org/2000/svg" xmlns:xlink="http://www.w3.org/1999/xlink" x="0px" y="0px"
	 viewBox="0 0 328.2 189.5" enable-background="new 0 0 328.2 189.5" xml:space="preserve">
<g id="Cercle_1_">
	<g id="Cercle">
		<circle opacity="0.5" fill="#54EBCE" cx="94.8" cy="94.8" r="94.8"/>
		<circle opacity="0.5" fill="#54EBCE" cx="94.8" cy="96.6" r="83.2"/>
		<circle opacity="0.5" fill="#50D1CC" cx="94.8" cy="98.1" r="69.6"/>
	</g>
</g>
<g id="Maison_1_">
	<g>
		<path id="Maison_2_" fill="none" stroke="#FFFFFF" stroke-width="1.516" stroke-miterlimit="10" d="M118.7,149.9H68.9
			c-6.6,0-12-5.4-12-12v-44c0-6.6,5.4-12,12-12h49.7c6.6,0,12,5.4,12,12v44C130.7,144.5,125.3,149.9,118.7,149.9z"/>
		<g id="Toit_1_">
			<g>
				<path fill="#FFFFFF" d="M57.5,75.2c10.8-10,21.7-20,32.5-30c1.5-1.4,4.1-3,5.2-4.8c0.2-0.2-1.1-0.7-0.7,0.1
					c0.3,0.8,1.6,1.6,2.2,2.2c6,5.9,12.1,11.8,18.1,17.7c5,4.9,10.1,9.8,15.1,14.7c0.9,0.9,2.2-0.5,1.3-1.3
					c-11.9-11.6-23.9-23.3-35.8-34.9c-0.4-0.4-1-0.4-1.3,0C81.5,50.5,68.8,62.2,56.2,73.8C55.3,74.6,56.6,76,57.5,75.2L57.5,75.2z"
					/>
			</g>
		</g>
		<g id="FIole_1_">
			<g id="Fiole_1_">
				<g>
					<path fill="#FFFFFF" d="M113.2,130.8c-4.7-6.8-13.6-18.6-14.2-19.5V97c-0.2,0-0.3,0.1-0.5,0.1h-9.4c-0.2,0-0.3,0-0.5-0.1v14.3
						c-0.6,0.9-9.4,12.6-14.2,19.5c-3.5,5.1,0,8.5,4.1,8.3h15.3h15.3C113.2,139.3,116.7,135.9,113.2,130.8z M106.1,137H93.8H81.6
						c-3.3,0.1-6.1-2.6-3.3-6.7c1.7-2.5,4-5.7,6.1-8.6h18.7c2.1,2.9,4.5,6.1,6.1,8.6C112.1,134.4,109.3,137.2,106.1,137z"/>
					<path opacity="0.5" fill="#54EBCE" d="M103.2,121.8H84.5c-2.1,2.9-4.5,6.1-6.1,8.6c-2.8,4.1,0,6.8,3.3,6.7h12.2h12.2
						c3.3,0.1,6.1-2.6,3.3-6.7C107.7,127.9,105.3,124.7,103.2,121.8z"/>
					<path fill="#FFFFFF" d="M98.5,97.2c0.2,0,0.3,0,0.5-0.1c1-0.2,1.7-1.1,1.7-2.2c0-1.2-1-2.2-2.2-2.2h-9.4c-1.2,0-2.2,1-2.2,2.2
						c0,1.1,0.7,2,1.7,2.2c0.2,0,0.3,0.1,0.5,0.1H98.5z"/>
				</g>
			</g>
		</g>
		<ellipse fill="#FFFFFF" cx="96.8" cy="89.8" rx="0.9" ry="1"/>
		<ellipse fill="#FFFFFF" cx="101" cy="89.2" rx="0.9" ry="1"/>
		<ellipse fill="#FFFFFF" cx="104.8" cy="91.7" rx="0.9" ry="1"/>
		<ellipse fill="#FFFFFF" cx="107.8" cy="95.4" rx="0.9" ry="1"/>
		<ellipse fill="#FFFFFF" cx="109.7" cy="99.8" rx="0.9" ry="1"/>
		<ellipse fill="#FFFFFF" cx="110.5" cy="104.2" rx="0.9" ry="1"/>
		<ellipse fill="#FFFFFF" cx="93.8" cy="128.4" rx="0.9" ry="1"/>
		<ellipse fill="#FFFFFF" cx="87.8" cy="131.9" rx="0.9" ry="1"/>
		<ellipse fill="#FFFFFF" cx="86.9" cy="125.6" rx="0.9" ry="1"/>
		<ellipse fill="#FFFFFF" cx="102.9" cy="125.6" rx="0.9" ry="1"/>
		<ellipse fill="#FFFFFF" cx="104.8" cy="131.9" rx="0.9" ry="1"/>
		<ellipse fill="#FFFFFF" cx="95.8" cy="133.9" rx="0.9" ry="1"/>
		<ellipse fill="#FFFFFF" cx="99.1" cy="129.4" rx="0.9" ry="1"/>
		<ellipse fill="#FFFFFF" cx="95.8" cy="124.6" rx="0.9" ry="1"/>
		<ellipse fill="#FFFFFF" cx="81.7" cy="132.9" rx="0.9" ry="1"/>
		<ellipse fill="#FFFFFF" cx="83.6" cy="129.4" rx="0.9" ry="1"/>
		<ellipse fill="#FFFFFF" cx="90.8" cy="125.6" rx="0.9" ry="1"/>
		<ellipse fill="#FFFFFF" cx="89.9" cy="134.9" rx="0.9" ry="1"/>
	</g>
</g>
<g id="Texte">
	<g>
		<g>
			<path opacity="0.5" fill="#50D1CC" d="M213.4,17.6c4.6,0,13.5,1.9,13.5,8v4h-6v-2c0-2.6-4.3-3.8-7.4-3.8c-6.4,0-11.4,4.6-11.4,12
				c0,7,5.1,12.6,11.6,12.6c6.7,0,10.8-4.7,10.8-4.7l3.5,4.7c0,0-5.2,6.1-14.3,6.1c-10.9,0-18.3-8.2-18.3-18.7
				C195.4,25.4,203.1,17.6,213.4,17.6z"/>
			<path opacity="0.5" fill="#54EBCE" d="M239.2,36c5,0,7.7,3.6,7.7,8.2c0,0.5-0.1,1.6-0.1,1.6h-12c0.3,3.1,2.6,4.7,5.2,4.7
				c2.8,0,4.9-1.9,4.9-1.9l1.8,3c0,0-2.7,2.6-7,2.6c-5.7,0-9.3-4.1-9.3-9.1C230.4,39.7,234,36,239.2,36z M242.5,42.8
				c-0.1-2.1-1.5-3.5-3.3-3.5c-2.2,0-3.8,1.3-4.2,3.5H242.5z"/>
			<path opacity="0.5" fill="#54EBCE" d="M251.1,40.8c0-0.5-0.3-0.7-0.7-0.7H249v-3.7h4c1.5,0,2.3,0.7,2.3,1.9v0.5
				c0,0.4-0.1,0.7-0.1,0.7h0.1c0.7-1.5,2.6-3.6,6.1-3.6c3.8,0,6.1,2,6.1,6.6v6.8c0,0.5,0.3,0.7,0.7,0.7h1.4v3.6h-4.1
				c-1.6,0-2.3-0.7-2.3-2.3v-8c0-2.1-0.5-3.5-2.7-3.5c-2.3,0-4,1.5-4.7,3.5c-0.2,0.7-0.3,1.5-0.3,2.3v8h-4.3V40.8z"/>
			<path opacity="0.5" fill="#54EBCE" d="M273,39.8h-2.2v-3.4h2.3v-4.7h4.2v4.7h3.9v3.4h-3.9v7c0,2.9,2.2,3.3,3.4,3.3
				c0.5,0,0.8-0.1,0.8-0.1v3.8c0,0-0.5,0.1-1.3,0.1c-2.4,0-7.2-0.7-7.2-6.5V39.8z"/>
			<path opacity="0.5" fill="#54EBCE" d="M285.5,40.8c0-0.5-0.3-0.7-0.7-0.7h-1.4v-3.7h3.9c1.5,0,2.3,0.6,2.3,2.1v1
				c0,0.6-0.1,1.1-0.1,1.1h0.1c0.8-2.5,2.9-4.5,5.5-4.5c0.4,0,0.8,0.1,0.8,0.1v4.2c0,0-0.4-0.1-1.1-0.1c-1.8,0-3.9,1.1-4.7,3.6
				c-0.2,0.9-0.4,1.8-0.4,2.8v6.9h-4.3V40.8z"/>
			<path opacity="0.5" fill="#54EBCE" d="M306,36c5,0,7.7,3.6,7.7,8.2c0,0.5-0.1,1.6-0.1,1.6h-12c0.3,3.1,2.6,4.7,5.2,4.7
				c2.8,0,4.9-1.9,4.9-1.9l1.8,3c0,0-2.7,2.6-7,2.6c-5.7,0-9.3-4.1-9.3-9.1C297.2,39.7,300.8,36,306,36z M309.2,42.8
				c-0.1-2.1-1.5-3.5-3.3-3.5c-2.2,0-3.8,1.3-4.2,3.5H309.2z"/>
		</g>
		<g>
			<path opacity="0.5" fill="#50D1CC" d="M199.2,98.7c0,0,3.6,4.2,8.6,4.2c2.7,0,5.1-1.5,5.1-4.2c0-6.1-16.7-5.6-16.7-16.6
				c0-5.8,5-10,11.9-10c4.2,0,10.6,2,10.6,7v3.3h-5.9v-1.6c0-1.6-2.3-2.8-4.7-2.8c-3,0-5.2,1.6-5.2,3.8c0,6.1,16.7,4.9,16.7,16.5
				c0,5.6-4.4,10.5-11.8,10.5c-7.9,0-12.2-5.5-12.2-5.5L199.2,98.7z"/>
			<path opacity="0.5" fill="#54EBCE" d="M232.8,97.3h0.5v-0.1c0-2.5-1-3.4-3.2-3.4c-0.8,0-2.3,0.2-2.3,1.2v0.9h-4V94
				c0-3.2,4.6-3.6,6.4-3.6c5.8,0,7.5,3,7.5,6.9v6.5c0,0.5,0.3,0.7,0.7,0.7h1.4v3.6h-3.9c-1.6,0-2.2-0.9-2.2-1.9c0-0.4,0-0.7,0-0.7
				h-0.1c0,0-1.3,3.1-5.2,3.1c-3.1,0-5.9-1.9-5.9-5.4C222.5,97.8,229.9,97.3,232.8,97.3z M229.4,105.2c2.3,0,3.9-2.4,3.9-4.6v-0.4
				h-0.7c-2.2,0-5.8,0.3-5.8,2.7C226.8,104.2,227.7,105.2,229.4,105.2z"/>
			<path opacity="0.5" fill="#54EBCE" d="M243.2,95.3c0-0.5-0.3-0.7-0.7-0.7h-1.4v-3.7h4c1.5,0,2.3,0.7,2.3,1.9v0.5
				c0,0.4-0.1,0.7-0.1,0.7h0.1c0.7-1.5,2.6-3.6,6.1-3.6c3.8,0,6.1,2,6.1,6.6v6.8c0,0.5,0.3,0.7,0.7,0.7h1.4v3.6h-4.1
				c-1.6,0-2.3-0.7-2.3-2.3v-8c0-2.1-0.5-3.5-2.7-3.5c-2.3,0-4,1.5-4.7,3.5c-0.2,0.7-0.3,1.5-0.3,2.3v8h-4.3V95.3z"/>
			<path opacity="0.5" fill="#54EBCE" d="M265.1,94.3h-2.2v-3.4h2.3v-4.7h4.2v4.7h3.9v3.4h-3.9v7c0,2.9,2.2,3.3,3.4,3.3
				c0.5,0,0.8-0.1,0.8-0.1v3.8c0,0-0.5,0.1-1.3,0.1c-2.4,0-7.2-0.7-7.2-6.5V94.3z"/>
			<path opacity="0.5" fill="#54EBCE" d="M284.4,90.5c5,0,7.7,3.6,7.7,8.2c0,0.5-0.1,1.6-0.1,1.6h-12c0.3,3.1,2.6,4.7,5.2,4.7
				c2.8,0,4.9-1.9,4.9-1.9l1.8,3c0,0-2.7,2.6-7,2.6c-5.7,0-9.3-4.1-9.3-9.1C275.6,94.2,279.2,90.5,284.4,90.5z M287.7,97.3
				c-0.1-2.1-1.5-3.5-3.3-3.5c-2.2,0-3.8,1.3-4.2,3.5H287.7z M285.3,84.1h4.1l-3.6,4.6h-3.2L285.3,84.1z"/>
		</g>
		<g>
			<path opacity="0.5" fill="#50D1CC" d="M195.8,160.9h3.5v-24.4h-3.5v-5.6h13.3v5.6h-3.6v24.4h3.6v5.5h-13.3V160.9z"/>
			<path opacity="0.5" fill="#54EBCE" d="M213.8,153.5c0-0.5-0.3-0.7-0.7-0.7h-1.4v-3.7h4c1.5,0,2.3,0.7,2.3,1.9v0.5
				c0,0.4-0.1,0.7-0.1,0.7h0.1c0.7-1.5,2.6-3.6,6.1-3.6c3.8,0,6.1,2,6.1,6.6v6.8c0,0.5,0.3,0.7,0.7,0.7h1.4v3.6h-4.1
				c-1.6,0-2.3-0.7-2.3-2.3v-8c0-2.1-0.5-3.5-2.7-3.5c-2.3,0-4,1.5-4.7,3.5c-0.2,0.7-0.3,1.5-0.3,2.3v8h-4.3V153.5z"/>
			<path opacity="0.5" fill="#54EBCE" d="M235.7,152.5h-2.2v-3.4h2.3v-4.7h4.2v4.7h3.9v3.4h-3.9v7c0,2.9,2.2,3.3,3.4,3.3
				c0.5,0,0.8-0.1,0.8-0.1v3.8c0,0-0.5,0.1-1.3,0.1c-2.4,0-7.2-0.7-7.2-6.5V152.5z"/>
			<path opacity="0.5" fill="#54EBCE" d="M255.1,148.7c5,0,7.7,3.6,7.7,8.2c0,0.5-0.1,1.6-0.1,1.6h-12c0.3,3.1,2.6,4.7,5.2,4.7
				c2.8,0,4.9-1.9,4.9-1.9l1.8,3c0,0-2.7,2.6-7,2.6c-5.7,0-9.3-4.1-9.3-9.1C246.2,152.4,249.9,148.7,255.1,148.7z M258.3,155.5
				c-0.1-2.1-1.5-3.5-3.3-3.5c-2.2,0-3.8,1.3-4.2,3.5H258.3z M255.9,142.3h4.1l-3.6,4.6h-3.2L255.9,142.3z"/>
			<path opacity="0.5" fill="#54EBCE" d="M272.9,148.7c4,0,5.3,2.4,5.3,2.4h0.1c0,0,0-0.2,0-0.4c0-0.8,0.5-1.6,1.9-1.6h4v3.7h-1.3
				c-0.4,0-0.7,0.2-0.7,0.7v11.9c0,5.9-4.6,8.2-9.1,8.2c-2.2,0-4.5-0.6-6.2-1.5l1.3-3.4c0,0,2.1,1.2,4.8,1.2c2.6,0,4.9-1.1,4.9-4.2
				v-0.8c0-0.4,0-0.9,0-0.9h-0.1c-1,1.5-2.5,2.2-4.8,2.2c-5,0-7.8-4-7.8-8.8C265.2,152.6,267.9,148.7,272.9,148.7z M277.9,157.4
				c0-3.9-2-5-4.3-5c-2.6,0-4,1.9-4,4.8c0,3,1.5,5.3,4.3,5.3C276,162.5,277.9,161.3,277.9,157.4z"/>
			<path opacity="0.5" fill="#54EBCE" d="M287.7,153.5c0-0.5-0.3-0.7-0.7-0.7h-1.4v-3.7h3.9c1.5,0,2.3,0.6,2.3,2.1v1
				c0,0.6-0.1,1.1-0.1,1.1h0.1c0.8-2.5,2.9-4.5,5.5-4.5c0.4,0,0.8,0.1,0.8,0.1v4.2c0,0-0.4-0.1-1.1-0.1c-1.8,0-3.9,1.1-4.7,3.6
				c-0.2,0.8-0.4,1.8-0.4,2.8v6.9h-4.3V153.5z"/>
			<path opacity="0.5" fill="#54EBCE" d="M308.2,148.7c5,0,7.7,3.6,7.7,8.2c0,0.5-0.1,1.6-0.1,1.6h-12c0.3,3.1,2.6,4.7,5.2,4.7
				c2.8,0,4.9-1.9,4.9-1.9l1.8,3c0,0-2.7,2.6-7,2.6c-5.7,0-9.3-4.1-9.3-9.1C299.4,152.4,303,148.7,308.2,148.7z M311.4,155.5
				c-0.1-2.1-1.5-3.5-3.3-3.5c-2.2,0-3.8,1.3-4.2,3.5H311.4z M309,142.3h4.1l-3.6,4.6h-3.2L309,142.3z"/>
		</g>
	</g>
</g>
</svg>
